<svg width="410" height="396" viewBox="0 0 410 396" fill="none" xmlns="http://www.w3.org/2000/svg">
<g id="LogoAWKOCube">
<g id="Component1">
<path id="Rectangle 26" d="M165.075 155.155L164.6 155L165.092 155.088L166.52 147.101L166.987 145.114L166.988 145.106L166.99 145.098L167.468 142.706L172.532 135.802L195.33 162.225L189.332 165.837L183.437 166.584L183.425 166.586L183.412 166.588L175.428 168.005C169.766 168.641 165.006 172.547 163.278 177.977L162.782 179.534C162.602 180.101 162.466 180.681 162.376 181.268L161.511 186.888L160.662 189.665L156.53 197.034L133.812 171.658L142.148 167.564L153.079 166.072L153.115 166.068L153.149 166.058L154.051 165.799C159.267 164.304 163.398 160.314 165.075 155.155Z" fill="#BBF4FC" stroke="#99E0FF"/>
<circle id="Ellipse 13" cx="143.5" cy="185.5" r="18.5" fill="#BEEBFE"/>
<circle id="Ellipse 14" cx="184.5" cy="148.5" r="18.5" fill="#CCFAF3"/>
</g>
<g id="Component2">
<path id="Rectangle 28" d="M216.72 166.775L216.824 166.286L216.788 166.785L224.88 167.37L226.905 167.626L226.913 167.627L226.921 167.628L229.35 167.854L236.745 172.167L212.85 197.603L208.631 192.016L207.272 186.231L207.269 186.219L207.266 186.207L205.022 178.414C203.798 172.849 199.415 168.524 193.834 167.373L192.234 167.043C191.651 166.923 191.061 166.848 190.467 166.82L184.787 166.547L181.937 165.993L174.176 162.654L197.039 137.408L201.981 145.27L204.608 155.986L204.616 156.02L204.63 156.054L204.981 156.924C207.013 161.955 211.413 165.647 216.72 166.775Z" fill="#CBFAFA" stroke="#95FFEF"/>
<circle id="Ellipse 19" cx="184.5" cy="148.5" r="18.5" fill="#CCFAF3"/>
<circle id="Ellipse 21" cx="224.5" cy="185.5" r="18.5" fill="#A7F1E3"/>
</g>
<g id="Component3">
<path id="Rectangle 27" d="M246.316 155.103L245.84 154.948L246.332 155.036L247.76 147.049L248.227 145.062L248.229 145.054L248.23 145.046L248.709 142.654L253.772 135.75L276.57 162.173L270.572 165.785L264.677 166.532L264.665 166.534L264.653 166.536L256.668 167.953C251.006 168.589 246.246 172.495 244.518 177.925L244.023 179.482C243.842 180.049 243.706 180.629 243.616 181.216L242.751 186.836L241.902 189.613L237.77 196.982L215.053 171.606L223.388 167.512L234.319 166.02L234.355 166.016L234.389 166.006L235.292 165.747C240.507 164.252 244.639 160.262 246.316 155.103Z" fill="#D3F1A2" stroke="#A1F020"/>
<circle id="Ellipse 16" cx="265.5" cy="148.5" r="18.5" fill="#C2FF93"/>
<circle id="Ellipse 20" cx="224.5" cy="185.5" r="18.5" fill="#A7F1E3"/>
</g>
<g id="AWKO">
<path id="AWKO_2" d="M163.576 239.008C165.816 239.008 167.584 239.664 168.88 240.976C170.176 242.272 170.824 244.136 170.824 246.568V256H168.424V251.368H158.728V256H156.376V246.568C156.376 244.136 157.024 242.272 158.32 240.976C159.616 239.664 161.368 239.008 163.576 239.008ZM168.424 249.28V246.352C168.424 244.64 167.992 243.344 167.128 242.464C166.28 241.584 165.096 241.144 163.576 241.144C162.056 241.144 160.864 241.584 160 242.464C159.152 243.344 158.728 244.64 158.728 246.352V249.28H168.424ZM203.699 239.2V249.472C203.699 251.664 203.163 253.32 202.091 254.44C201.019 255.56 199.515 256.12 197.579 256.12C196.187 256.12 195.019 255.824 194.075 255.232C193.131 254.64 192.459 253.768 192.059 252.616C191.659 253.768 190.987 254.64 190.043 255.232C189.099 255.824 187.931 256.12 186.539 256.12C184.603 256.12 183.099 255.56 182.027 254.44C180.955 253.32 180.419 251.664 180.419 249.472V239.2H181.643V249.424C181.643 251.328 182.059 252.736 182.891 253.648C183.739 254.544 184.955 254.992 186.539 254.992C188.107 254.992 189.315 254.536 190.163 253.624C191.011 252.712 191.435 251.312 191.435 249.424V239.2H192.683V249.424C192.683 251.328 193.099 252.736 193.931 253.648C194.779 254.544 195.995 254.992 197.579 254.992C199.147 254.992 200.355 254.536 201.203 253.624C202.051 252.712 202.475 251.312 202.475 249.424V239.2H203.699ZM218.919 248.536L215.847 251.656V256H213.447V239.2H215.847V248.584L224.967 239.2H227.703L220.527 246.76L228.159 256H225.351L218.919 248.536ZM242.112 256.192C240.416 256.192 238.888 255.824 237.527 255.088C236.167 254.336 235.095 253.304 234.311 251.992C233.543 250.68 233.159 249.216 233.159 247.6C233.159 245.984 233.543 244.52 234.311 243.208C235.095 241.896 236.167 240.872 237.527 240.136C238.888 239.384 240.416 239.008 242.112 239.008C243.792 239.008 245.312 239.384 246.671 240.136C248.032 240.872 249.096 241.896 249.864 243.208C250.632 244.504 251.016 245.968 251.016 247.6C251.016 249.232 250.632 250.704 249.864 252.016C249.096 253.312 248.032 254.336 246.671 255.088C245.312 255.824 243.792 256.192 242.112 256.192ZM242.112 254.056C243.344 254.056 244.448 253.776 245.424 253.216C246.416 252.656 247.192 251.888 247.752 250.912C248.328 249.92 248.616 248.816 248.616 247.6C248.616 246.384 248.328 245.288 247.752 244.312C247.192 243.32 246.416 242.544 245.424 241.984C244.448 241.424 243.344 241.144 242.112 241.144C240.88 241.144 239.76 241.424 238.752 241.984C237.76 242.544 236.975 243.32 236.4 244.312C235.839 245.288 235.559 246.384 235.559 247.6C235.559 248.816 235.839 249.92 236.4 250.912C236.975 251.888 237.76 252.656 238.752 253.216C239.76 253.776 240.88 254.056 242.112 254.056Z" fill="#686868"/>
</g>
</g>
</svg>
